<?xml version="1.0" encoding="UTF-8"?>
<svg version="1.1" xmlns="http://www.w3.org/2000/svg" width="1024" height="1024">
<path d="M0 0 C3.70661082 0.00915513 7.41258938 0.00231961 11.11914062 -0.02050781 C81.66813166 -0.4520985 151.25872584 12.03385231 216.08105469 40.44604492 C217.03351074 40.86321777 217.9859668 41.28039063 218.96728516 41.71020508 C241.1625726 51.50982569 262.47907469 62.63278745 283.08105469 75.44604492 C284.0364917 76.03482422 284.0364917 76.03482422 285.01123047 76.63549805 C295.40430618 83.05649933 305.2470591 90.20897964 315.08105469 97.44604492 C315.78584961 97.96102539 316.49064453 98.47600586 317.21679688 99.0065918 C330.21329673 108.51085569 342.35756462 118.79910561 354.15917969 129.74291992 C356.09674367 131.53542563 358.0446159 133.31685693 360.00292969 135.08666992 C369.88907186 144.03127475 379.71049875 153.22166546 388.32714844 163.41479492 C390.13918832 165.51337118 392.022746 167.53571069 393.91845703 169.55859375 C399.92683142 175.99168731 405.40635674 182.73934774 410.7578125 189.72436523 C412.01969049 191.36620353 413.29394697 192.99744628 414.57324219 194.62573242 C465.44284882 259.79733709 499.7712862 338.40299821 512.39355469 420.13354492 C512.51070831 420.8818457 512.62786194 421.63014648 512.74856567 422.40112305 C513.62459778 428.07117314 514.37141711 433.75300575 515.08105469 439.44604492 C515.21309296 440.4649884 515.34513123 441.48393188 515.48117065 442.53375244 C518.1747285 463.82066658 518.58242683 484.93209653 518.52709961 506.36499023 C518.51794448 510.07160106 518.52478 513.77757962 518.54760742 517.48413086 C518.97919811 588.03312189 506.4932473 657.62371607 478.08105469 722.44604492 C477.66388184 723.39850098 477.24670898 724.35095703 476.81689453 725.33227539 C467.01727392 747.52756283 455.89431216 768.84406492 443.08105469 789.44604492 C442.68853516 790.08300293 442.29601562 790.71996094 441.89160156 791.3762207 C435.47060028 801.76929641 428.31811997 811.61204933 421.08105469 821.44604492 C420.56607422 822.15083984 420.05109375 822.85563477 419.52050781 823.58178711 C410.01624392 836.57828696 399.727994 848.72255485 388.78417969 860.52416992 C386.99167397 862.4617339 385.21024268 864.40960614 383.44042969 866.36791992 C374.49582486 876.2540621 365.30543415 886.07548898 355.11230469 894.69213867 C353.01372843 896.50417855 350.99138892 898.38773623 348.96850586 900.28344727 C342.5354123 906.29182165 335.78775187 911.77134697 328.80273438 917.12280273 C327.16089607 918.38468072 325.52965333 919.6589372 323.90136719 920.93823242 C258.72976252 971.80783906 180.1241014 1006.13627644 98.39355469 1018.75854492 C97.64525391 1018.87569855 96.89695312 1018.99285217 96.12597656 1019.11355591 C90.45592647 1019.98958801 84.77409386 1020.73640735 79.08105469 1021.44604492 C78.06211121 1021.57808319 77.04316772 1021.71012146 75.99334717 1021.84616089 C54.70643303 1024.53971874 33.59500308 1024.94741706 12.16210938 1024.89208984 C8.45549855 1024.88293472 4.74951999 1024.88977024 1.04296875 1024.91259766 C-69.50602229 1025.34418834 -139.09661646 1012.85823754 -203.91894531 984.44604492 C-204.87140137 984.02887207 -205.82385742 983.61169922 -206.80517578 983.18188477 C-229.00046322 973.38226415 -250.31696532 962.25930239 -270.91894531 949.44604492 C-271.55590332 949.05352539 -272.19286133 948.66100586 -272.84912109 948.2565918 C-283.2421968 941.83559052 -293.08494972 934.68311021 -302.91894531 927.44604492 C-303.62374023 926.93106445 -304.32853516 926.41608398 -305.0546875 925.88549805 C-318.05118735 916.38123415 -330.19545524 906.09298423 -341.99707031 895.14916992 C-343.93463429 893.35666421 -345.88250653 891.57523291 -347.84082031 889.80541992 C-357.72696249 880.86081509 -367.54838937 871.67042438 -376.16503906 861.47729492 C-377.97707894 859.37871867 -379.86063662 857.35637916 -381.75634766 855.33349609 C-387.76472204 848.90040253 -393.24424736 842.1527421 -398.59570312 835.16772461 C-399.85758112 833.52588631 -401.13183759 831.89464357 -402.41113281 830.26635742 C-453.28073945 765.09475275 -487.60917683 686.48909164 -500.23144531 604.75854492 C-500.40717575 603.63609375 -500.40717575 603.63609375 -500.5864563 602.4909668 C-501.4624884 596.82091671 -502.20930774 591.1390841 -502.91894531 585.44604492 C-503.05098358 584.42710144 -503.18302185 583.40815796 -503.31906128 582.3583374 C-506.01261913 561.07142326 -506.42031745 539.95999332 -506.36499023 518.52709961 C-506.35583511 514.82048879 -506.36267063 511.11451023 -506.38549805 507.40795898 C-506.81708873 436.85896795 -494.33113793 367.26837377 -465.91894531 302.44604492 C-465.50177246 301.49358887 -465.08459961 300.54113281 -464.65478516 299.55981445 C-454.85516454 277.36452701 -443.73220278 256.04802492 -430.91894531 235.44604492 C-430.33016602 234.49060791 -430.33016602 234.49060791 -429.72949219 233.51586914 C-423.30849091 223.12279343 -416.1560106 213.28004051 -408.91894531 203.44604492 C-408.40396484 202.74125 -407.88898438 202.03645508 -407.35839844 201.31030273 C-397.85413454 188.31380288 -387.56588462 176.16953499 -376.62207031 164.36791992 C-374.8295646 162.43035594 -373.0481333 160.48248371 -371.27832031 158.52416992 C-362.33371549 148.63802774 -353.14332477 138.81660086 -342.95019531 130.19995117 C-340.85161906 128.38791129 -338.82927955 126.50435361 -336.80639648 124.60864258 C-330.37330293 118.60026819 -323.62564249 113.12074287 -316.640625 107.76928711 C-314.9987867 106.50740912 -313.36754396 105.23315264 -311.73925781 103.95385742 C-246.56765314 53.08425079 -167.96199203 18.75581341 -86.23144531 6.13354492 C-85.10899414 5.95781448 -85.10899414 5.95781448 -83.96386719 5.77853394 C-78.2938171 4.90250183 -72.61198449 4.1556825 -66.91894531 3.44604492 C-65.39053009 3.24798752 -65.39053009 3.24798752 -63.83123779 3.04592896 C-42.54432365 0.35237111 -21.43289371 -0.05532722 0 0 Z " fill="#FEFEFE" transform="translate(505.9189453125,-0.446044921875)"/>
<path d="M0 0 C3.57150042 3.1463218 5.39702464 5.6673805 6.05859375 10.44140625 C6.07347384 23.52100227 2.22092075 32.9265522 -4.37670898 43.97021484 C-6.76022305 47.86532736 -6.76022305 47.86532736 -7.375 52.3125 C-5.2533961 54.45757524 -5.2533961 54.45757524 -2.5 56.6875 C17.64590765 74.24205246 29.7290573 100.93108584 31.78344727 127.35009766 C32.38886065 138.85423737 31.22982865 149.62649811 29.125 160.9375 C25.49406979 180.79450506 22.33139147 203.37755149 33.5625 221.3125 C41.85148038 232.63252544 53.88017989 239.61905436 67.6875 241.9921875 C93.8781876 244.84808695 116.18913851 235.76177004 136.734375 219.9140625 C139.4026837 217.75435408 142.02228668 215.55058199 144.625 213.3125 C145.35332031 212.70664062 146.08164062 212.10078125 146.83203125 211.4765625 C151.00629236 207.94879308 154.65259719 204.18680937 158.1796875 200.01171875 C161.2888561 196.35634486 161.2888561 196.35634486 164.5 195.9375 C167.625 196.3125 167.625 196.3125 170.0625 197.9375 C171.625 200.3125 171.625 200.3125 171.53125 203.09765625 C170.42812395 207.01090083 168.46532557 209.29282669 165.6875 212.125 C164.94487915 212.90484253 164.94487915 212.90484253 164.18725586 213.70043945 C142.76904254 235.9246962 113.47003287 255.7925707 81.56152344 256.60522461 C62.85467448 256.76971167 45.42507217 252.00720472 30.93359375 239.5859375 C18.35058024 227.19454348 11.63225264 210.89842895 11.19506836 193.28588867 C11.19132202 192.06156128 11.19132202 192.06156128 11.1875 190.8125 C11.18435791 189.93247314 11.18121582 189.05244629 11.17797852 188.14575195 C11.34912742 178.23373642 13.36294185 168.70551207 15.43359375 159.04296875 C20.93207472 133.27865793 16.93993047 106.68147395 3.1953125 84.08984375 C-1.84108633 76.36034294 -8.72877629 68.4955107 -16.375 63.3125 C-20.17312546 64.57854182 -21.12060293 66.23294838 -23.5625 69.375 C-26.99473564 73.6805922 -30.55360762 77.60322154 -34.4921875 81.44140625 C-37.64131569 84.57093406 -40.49086788 87.94028398 -43.375 91.3125 C-44.28072194 92.35462585 -45.18701803 93.39625285 -46.09375 94.4375 C-51.35428882 100.49689008 -56.53371987 106.62151696 -61.5625 112.875 C-62.03204102 113.44621582 -62.50158203 114.01743164 -62.98535156 114.60595703 C-65.49911681 117.77397709 -67.32430918 120.20654319 -67.375 124.3125 C-66.32498005 127.69734735 -66.32498005 127.69734735 -64.6875 131.25 C-57.7133415 147.72148817 -54.94717877 163.95572334 -55 181.8125 C-55.00081573 182.85748657 -55.00081573 182.85748657 -55.00164795 183.92358398 C-55.0968958 210.6021259 -61.75684917 231.9575335 -77.33984375 253.40234375 C-90.61501498 271.43745311 -90.61501498 271.43745311 -95.5859375 292.73828125 C-95.61187988 294.00285156 -95.63782227 295.26742188 -95.66455078 296.5703125 C-95.67778381 297.23321289 -95.69101685 297.89611328 -95.70465088 298.57910156 C-96.17142834 319.63748738 -98.18087766 337.95837134 -113.59375 353.7890625 C-142.28754921 379.82304324 -184.79516939 387.88226908 -222.29052734 386.48095703 C-257.58028232 384.55362357 -292.92613692 373.06764504 -320.375 350.3125 C-320.92849121 349.86293945 -321.48198242 349.41337891 -322.05224609 348.95019531 C-340.2846366 334.10905959 -354.74530915 316.68311234 -364.52099609 295.18847656 C-365.33288093 293.40502229 -366.17541757 291.63561568 -367.01953125 289.8671875 C-370.06791458 283.21476615 -372.33062595 276.55189701 -374.25 269.5 C-374.46551514 268.72358154 -374.68103027 267.94716309 -374.90307617 267.1472168 C-376.23741435 261.95640352 -377.16097806 256.67150595 -376.375 251.3125 C-374.375 249.3125 -374.375 249.3125 -372.53593254 249.06640434 C-371.41042331 249.06916972 -371.41042331 249.06916972 -370.26217651 249.07199097 C-369.40118347 249.06924164 -368.54019043 249.06649231 -367.65310669 249.06365967 C-366.70652191 249.07085022 -365.75993713 249.07804077 -364.78466797 249.08544922 C-363.78951172 249.08515717 -362.79435547 249.08486511 -361.76904297 249.08456421 C-358.46833684 249.0859614 -355.16785437 249.10154096 -351.8671875 249.1171875 C-349.583182 249.12091624 -347.2991749 249.12376387 -345.01516724 249.12576294 C-338.9948487 249.1334103 -332.97462621 249.15306826 -326.9543457 249.1751709 C-320.8146291 249.1956056 -314.67489703 249.20475957 -308.53515625 249.21484375 C-296.48172857 249.23631311 -284.42837226 249.27046233 -272.375 249.3125 C-272.24222656 248.55324219 -272.10945313 247.79398438 -271.97265625 247.01171875 C-271.79605469 246.01785156 -271.61945313 245.02398437 -271.4375 244 C-271.17646484 242.52080078 -271.17646484 242.52080078 -270.91015625 241.01171875 C-270.375 238.3125 -270.375 238.3125 -269.375 235.3125 C-269.92883771 235.31526538 -270.48267542 235.31803076 -271.05329609 235.32087994 C-284.52347018 235.38710552 -297.99361579 235.4365724 -311.46391773 235.46793652 C-317.97804123 235.4836125 -324.4920475 235.50488621 -331.00610352 235.53881836 C-337.28898463 235.57134261 -343.57175276 235.58933844 -349.85471153 235.59713173 C-352.25537584 235.6026877 -354.65603377 235.6135367 -357.05665016 235.62969017 C-360.41135798 235.65137195 -363.76559506 235.65447077 -367.12036133 235.65307617 C-368.11945526 235.663862 -369.11854919 235.67464783 -370.1479187 235.6857605 C-371.06077133 235.68163651 -371.97362396 235.67751251 -372.91413879 235.67326355 C-373.70780255 235.67602893 -374.50146631 235.67879431 -375.31918049 235.68164349 C-377.92912133 235.21300183 -378.80726843 234.4239178 -380.375 232.3125 C-380.77905273 229.09228516 -380.77905273 229.09228516 -380.80859375 225.1015625 C-380.81555771 224.38559402 -380.82252167 223.66962555 -380.82969666 222.93196106 C-380.84367942 220.60001669 -380.83101967 218.26940079 -380.8125 215.9375 C-380.80945862 215.14417267 -380.80641724 214.35084534 -380.80328369 213.53347778 C-380.69211259 194.00664438 -377.23859612 176.58636589 -370.375 158.3125 C-369.9625 157.14847656 -369.55 155.98445312 -369.125 154.78515625 C-368.733125 153.78355469 -368.34125 152.78195312 -367.9375 151.75 C-367.60878906 150.90308594 -367.28007812 150.05617188 -366.94140625 149.18359375 C-365.375 147.3125 -365.375 147.3125 -362.19921875 146.21875 C-357.01192407 146.34591555 -354.62812735 148.2689533 -350.625 151.375 C-349.894021 151.91648682 -349.16304199 152.45797363 -348.40991211 153.01586914 C-346.85090852 154.17318858 -345.29822841 155.3390672 -343.75146484 156.51269531 C-340.6296467 158.87698988 -337.47146855 161.18999378 -334.31347656 163.50561523 C-331.91407552 165.26719769 -329.52111571 167.03726122 -327.12890625 168.80859375 C-322.56907321 172.17801555 -317.97714121 175.50119713 -313.375 178.8125 C-307.17836168 183.27258724 -301.01550149 187.77544919 -294.875 192.3125 C-288.47100628 197.03825124 -282.06119342 201.75566253 -275.625 206.4375 C-274.89861328 206.96988281 -274.17222656 207.50226563 -273.42382812 208.05078125 C-269.20680078 211.10842084 -264.94554288 213.81186266 -260.375 216.3125 C-259.20267315 214.6915787 -258.0372923 213.06563167 -256.875 211.4375 C-256.2253125 210.53257812 -255.575625 209.62765625 -254.90625 208.6953125 C-253.19479394 206.50414492 -253.19479394 206.50414492 -253.375 204.3125 C-254.92027465 202.9924926 -254.92027465 202.9924926 -256.96875 201.6953125 C-257.74347656 201.17710937 -258.51820313 200.65890625 -259.31640625 200.125 C-260.16074219 199.568125 -261.00507813 199.01125 -261.875 198.4375 C-268.16978528 194.21595995 -274.35530562 189.91824465 -280.375 185.3125 C-286.08722321 180.9549144 -291.9224334 176.83523089 -297.875 172.8125 C-304.54260502 168.30466292 -311.04252764 163.64002503 -317.44824219 158.76831055 C-322.26771638 155.11267783 -327.16995234 151.59430603 -332.125 148.125 C-350.27069064 135.41680936 -350.27069064 135.41680936 -353.375 132.3125 C-354.03964716 126.93202297 -352.28602944 123.94538037 -349.125 119.8125 C-348.67898438 119.21155518 -348.23296875 118.61061035 -347.7734375 117.99145508 C-339.87951399 107.50665647 -331.48929184 97.72471037 -321.375 89.3125 C-320.59898437 88.64992188 -319.82296875 87.98734375 -319.0234375 87.3046875 C-299.50497425 71.09228317 -299.50497425 71.09228317 -289.375 71.3125 C-277.81128624 92.88327374 -266.87108476 114.79626791 -256.39575195 136.91503906 C-252.37454334 145.38249283 -248.16916797 153.75396398 -243.95751953 162.12792969 C-239.94411583 170.12552215 -236.09721941 178.17555524 -232.375 186.3125 C-228.085 184.3325 -223.795 182.3525 -219.375 180.3125 C-220.6159845 176.58954651 -221.68204975 173.44597379 -223.36767578 170.00830078 C-223.75692734 169.20992798 -224.14617889 168.41155518 -224.54722595 167.58898926 C-224.96734451 166.73720093 -225.38746307 165.8854126 -225.8203125 165.0078125 C-226.26254654 164.10397827 -226.70478058 163.20014404 -227.16041565 162.2689209 C-228.60313625 159.32322949 -230.05143924 156.38032327 -231.5 153.4375 C-232.50126116 151.39642129 -233.50231759 149.35524214 -234.50317383 147.31396484 C-240.62322697 134.84478052 -246.80213779 122.40593322 -253.03875732 109.99468994 C-258.59672502 98.9326675 -263.98989328 87.79869119 -269.27172852 76.60229492 C-270.36462519 74.3340325 -271.51160089 72.09970329 -272.66796875 69.86328125 C-274.375 66.3125 -274.375 66.3125 -274.4375 63.5 C-272.50264833 59.51648186 -268.45862509 58.26731064 -264.4765625 56.8125 C-262.98743707 56.30345287 -261.49505564 55.80385747 -260 55.3125 C-259.21069092 55.05122314 -258.42138184 54.78994629 -257.6081543 54.52075195 C-235.47648962 47.40121112 -215.3020715 48.3125 -191.375 48.3125 C-191.375 89.5625 -191.375 130.8125 -191.375 173.3125 C-186.095 173.3125 -180.815 173.3125 -175.375 173.3125 C-175.375 132.7225 -175.375 92.1325 -175.375 50.3125 C-157.86032232 53.81543554 -157.86032232 53.81543554 -149.4375 57 C-148.50292969 57.34812744 -147.56835938 57.69625488 -146.60546875 58.05493164 C-132.25529156 63.51856503 -113.20495249 71.07674652 -103.375 83.3125 C-103.69167303 87.39453965 -105.29991849 90.21584569 -107.4453125 93.64453125 C-108.08694336 94.67827881 -108.72857422 95.71202637 -109.38964844 96.77709961 C-110.08606445 97.88190674 -110.78248047 98.98671387 -111.5 100.125 C-112.22494914 101.28677588 -112.94922326 102.44897322 -113.67285156 103.61157227 C-115.16531036 106.00645519 -116.66221034 108.39846902 -118.16308594 110.78808594 C-120.23401663 114.08546605 -122.29409239 117.38951296 -124.3515625 120.6953125 C-130.47328391 130.52385803 -136.63200023 140.32887055 -142.83056641 150.10913086 C-145.51609248 154.35090995 -148.18004375 158.60488149 -150.8203125 162.875 C-157.93823397 174.3703858 -165.24669412 185.70270498 -172.79058838 196.92077637 C-177.94216042 204.58594104 -182.92787656 212.31965678 -187.68115234 220.23852539 C-190.41822114 224.78814901 -193.2727704 229.2291383 -196.25 233.625 C-205.76050128 247.69751066 -214.40192533 262.34482475 -223.21166992 276.86083984 C-227.36516674 283.69041903 -231.59792146 290.46509183 -235.88232422 297.21313477 C-239.81449045 303.4098959 -243.69818448 309.63571286 -247.5625 315.875 C-248.12783447 316.78652832 -248.69316895 317.69805664 -249.27563477 318.63720703 C-249.79697998 319.48009277 -250.3183252 320.32297852 -250.85546875 321.19140625 C-251.31848389 321.9397876 -251.78149902 322.68816895 -252.25854492 323.45922852 C-254.22257279 326.71943746 -254.48633406 328.6284434 -254.4375 332.4375 C-254.42847656 333.34757812 -254.41945313 334.25765625 -254.41015625 335.1953125 C-254.39855469 335.89398437 -254.38695312 336.59265625 -254.375 337.3125 C-252.00647303 337.64161303 -252.00647303 337.64161303 -249.375 337.3125 C-247.61376142 335.71977967 -247.61376142 335.71977967 -246.25 333.375 C-245.651875 332.45589844 -245.05375 331.53679687 -244.4375 330.58984375 C-243.756875 329.50832031 -243.07625 328.42679688 -242.375 327.3125 C-241.56463994 326.06241228 -240.75201513 324.81379065 -239.9375 323.56640625 C-238.07408508 320.70769553 -236.22078706 317.84278091 -234.375 314.97265625 C-231.34669953 310.26471922 -228.30120829 305.56811621 -225.25 300.875 C-224.71246094 300.04814697 -224.17492187 299.22129395 -223.62109375 298.36938477 C-213.43720792 282.71402315 -203.19913628 267.09397567 -192.96160889 251.47366333 C-192.36186249 250.55857498 -192.36186249 250.55857498 -191.75 249.625 C-191.35000793 249.0146994 -190.95001587 248.4043988 -190.53790283 247.77560425 C-181.64219176 234.20178618 -172.7755056 220.60911477 -163.921875 207.0078125 C-158.1993224 198.22051506 -152.46405063 189.4418703 -146.703125 180.6796875 C-146.203573 179.91986572 -145.704021 179.16004395 -145.18933105 178.37719727 C-142.71329403 174.61171863 -140.23623836 170.84691453 -137.7578125 167.08300781 C-131.64167779 157.78997538 -125.57871402 148.4639046 -119.54290771 139.11853027 C-117.53627578 136.01551282 -115.51684006 132.92087931 -113.49780273 129.82592773 C-106.59642949 119.24319601 -99.7957893 108.59811845 -93.03320312 97.92626953 C-91.49999699 95.50952853 -89.96177672 93.09607171 -88.421875 90.68359375 C-81.4524956 79.73883193 -74.69597089 68.67036133 -67.98510742 57.56591797 C-67.628022 56.97535614 -67.27093658 56.38479431 -66.9030304 55.77633667 C-65.92530116 54.15865099 -64.94869886 52.54028435 -63.97216797 50.921875 C-62.81256069 49.02736528 -61.6071159 47.16067384 -60.375 45.3125 C-65.59462727 46.62810278 -70.17285685 47.9649818 -74.625 51.0625 C-77.48890543 52.99302734 -78.12382261 53.31715143 -81.75 53.25 C-84.375 52.3125 -84.375 52.3125 -86.375 50.3125 C-86.9375 47.0625 -86.9375 47.0625 -86.375 43.3125 C-81.00871264 36.41298768 -72.31797163 33.15878031 -64.01953125 31.578125 C-61.16729532 31.29163749 -58.5994185 31.5445049 -55.75 31.8125 C-52.24499677 31.8814186 -50.89891661 31.76618141 -48.21875 29.4453125 C-46.14765706 26.80713458 -44.26653157 24.08170222 -42.375 21.3125 C-32.9899412 9.87231884 -16.31309008 -8.15654504 0 0 Z " fill="#268CFB" transform="translate(600.375,227.6875)"/>
<path d="M0 0 C3.57150042 3.1463218 5.39702464 5.6673805 6.05859375 10.44140625 C6.07347384 23.52100227 2.22092075 32.9265522 -4.37670898 43.97021484 C-6.76022305 47.86532736 -6.76022305 47.86532736 -7.375 52.3125 C-5.2533961 54.45757524 -5.2533961 54.45757524 -2.5 56.6875 C17.64590765 74.24205246 29.7290573 100.93108584 31.78344727 127.35009766 C32.38886065 138.85423737 31.22982865 149.62649811 29.125 160.9375 C25.49406979 180.79450506 22.33139147 203.37755149 33.5625 221.3125 C41.85148038 232.63252544 53.88017989 239.61905436 67.6875 241.9921875 C93.8781876 244.84808695 116.18913851 235.76177004 136.734375 219.9140625 C139.4026837 217.75435408 142.02228668 215.55058199 144.625 213.3125 C145.35332031 212.70664062 146.08164062 212.10078125 146.83203125 211.4765625 C151.00629236 207.94879308 154.65259719 204.18680937 158.1796875 200.01171875 C161.2888561 196.35634486 161.2888561 196.35634486 164.5 195.9375 C167.625 196.3125 167.625 196.3125 170.0625 197.9375 C171.625 200.3125 171.625 200.3125 171.53125 203.09765625 C170.42812395 207.01090083 168.46532557 209.29282669 165.6875 212.125 C165.19241943 212.64489502 164.69733887 213.16479004 164.18725586 213.70043945 C142.76904254 235.9246962 113.47003287 255.7925707 81.56152344 256.60522461 C62.85467448 256.76971167 45.42507217 252.00720472 30.93359375 239.5859375 C18.35058024 227.19454348 11.63225264 210.89842895 11.19506836 193.28588867 C11.19132202 192.06156128 11.19132202 192.06156128 11.1875 190.8125 C11.18278687 189.49245972 11.18278687 189.49245972 11.17797852 188.14575195 C11.34912742 178.23373642 13.36294185 168.70551207 15.43359375 159.04296875 C20.93207472 133.27865793 16.93993047 106.68147395 3.1953125 84.08984375 C-1.84108633 76.36034294 -8.72877629 68.4955107 -16.375 63.3125 C-20.17312546 64.57854182 -21.12060293 66.23294838 -23.5625 69.375 C-26.99473564 73.6805922 -30.55360762 77.60322154 -34.4921875 81.44140625 C-37.64131569 84.57093406 -40.49086788 87.94028398 -43.375 91.3125 C-44.28072194 92.35462585 -45.18701803 93.39625285 -46.09375 94.4375 C-51.67432807 100.86874806 -57.07504149 107.39797014 -62.29541016 114.12475586 C-65.88032354 118.72812521 -69.60454587 123.19480818 -73.39306641 127.63134766 C-76.24360047 130.9700217 -79.0461763 134.34069295 -81.8125 137.75 C-86.22413055 143.16820579 -90.76823642 148.4652085 -95.32421875 153.76171875 C-101.56927321 161.02281003 -107.7713115 168.31803429 -113.8125 175.75 C-117.76943418 180.61299424 -121.83935942 185.36950203 -125.93115234 190.11865234 C-129.72663367 194.53281766 -133.42777913 199.01583198 -137.09765625 203.53515625 C-139.65704272 206.65646633 -142.26104122 209.73690998 -144.875 212.8125 C-148.92281947 217.57877265 -152.91458811 222.38535146 -156.86328125 227.234375 C-160.02110156 231.10430098 -163.19792164 234.9583808 -166.375 238.8125 C-170.21572945 243.47316046 -174.05379598 248.13580254 -177.875 252.8125 C-179.37469695 254.64608124 -180.87473347 256.47938477 -182.375 258.3125 C-182.88498535 258.93592285 -183.3949707 259.5593457 -183.92041016 260.20166016 C-190.61145706 268.37488878 -197.35086732 276.4947254 -204.25268555 284.4909668 C-207.72499012 288.52435745 -211.07660409 292.63828022 -214.37890625 296.8125 C-219.45247554 303.16687249 -224.66782815 309.41587458 -230.0625 315.5 C-233.70142907 319.6154555 -237.04769972 323.94352213 -240.375 328.3125 C-241.035 327.9825 -241.695 327.6525 -242.375 327.3125 C-225.99597073 301.97259901 -209.50091035 276.70915672 -192.96160889 251.47366333 C-192.56177795 250.86360443 -192.16194702 250.25354553 -191.75 249.625 C-191.35000793 249.0146994 -190.95001587 248.4043988 -190.53790283 247.77560425 C-181.64219176 234.20178618 -172.7755056 220.60911477 -163.921875 207.0078125 C-158.1993224 198.22051506 -152.46405063 189.4418703 -146.703125 180.6796875 C-146.203573 179.91986572 -145.704021 179.16004395 -145.18933105 178.37719727 C-142.71329403 174.61171863 -140.23623836 170.84691453 -137.7578125 167.08300781 C-131.64167779 157.78997538 -125.57871402 148.4639046 -119.54290771 139.11853027 C-117.53627578 136.01551282 -115.51684006 132.92087931 -113.49780273 129.82592773 C-106.59642949 119.24319601 -99.7957893 108.59811845 -93.03320312 97.92626953 C-91.49999699 95.50952853 -89.96177672 93.09607171 -88.421875 90.68359375 C-81.4524956 79.73883193 -74.69597089 68.67036133 -67.98510742 57.56591797 C-67.628022 56.97535614 -67.27093658 56.38479431 -66.9030304 55.77633667 C-65.92530116 54.15865099 -64.94869886 52.54028435 -63.97216797 50.921875 C-62.81256069 49.02736528 -61.6071159 47.16067384 -60.375 45.3125 C-65.59462727 46.62810278 -70.17285685 47.9649818 -74.625 51.0625 C-77.48890543 52.99302734 -78.12382261 53.31715143 -81.75 53.25 C-84.375 52.3125 -84.375 52.3125 -86.375 50.3125 C-86.9375 47.0625 -86.9375 47.0625 -86.375 43.3125 C-81.00871264 36.41298768 -72.31797163 33.15878031 -64.01953125 31.578125 C-61.16729532 31.29163749 -58.5994185 31.5445049 -55.75 31.8125 C-52.24499677 31.8814186 -50.89891661 31.76618141 -48.21875 29.4453125 C-46.14765706 26.80713458 -44.26653157 24.08170222 -42.375 21.3125 C-32.9899412 9.87231884 -16.31309008 -8.15654504 0 0 Z " fill="#8273F3" transform="translate(600.375,227.6875)"/>
<path d="M0 0 C11.56371376 21.57077374 22.50391524 43.48376791 32.97924805 65.60253906 C36.46979291 72.95257484 40.09497143 80.23054272 43.75 87.5 C57 113.87972182 57 113.87972182 57 117 C55.64897952 117.90068032 54.29362847 118.7952853 52.921875 119.6640625 C47.63254056 123.34079498 42.71016106 127.72332649 39 133 C34.11780325 132.53196986 31.00953054 130.09370129 27.25 127.1875 C25.90867115 126.17689841 24.56617954 125.16783864 23.22265625 124.16015625 C22.5280127 123.63695801 21.83336914 123.11375977 21.11767578 122.57470703 C17.68801247 120.02440401 14.18850863 117.57594996 10.6875 115.125 C4.75862585 110.9613811 -1.13392231 106.75162476 -7 102.5 C-12.80561514 98.29306872 -18.6352876 94.12414687 -24.5 90 C-59.93646735 65.06353265 -59.93646735 65.06353265 -64 61 C-64.66464716 55.61952297 -62.91102944 52.63288037 -59.75 48.5 C-59.30398437 47.89905518 -58.85796875 47.29811035 -58.3984375 46.67895508 C-50.50451399 36.19415647 -42.11429184 26.41221037 -32 18 C-31.22398437 17.33742188 -30.44796875 16.67484375 -29.6484375 15.9921875 C-10.12997425 -0.22021683 -10.12997425 -0.22021683 0 0 Z " fill="#D649CE" transform="translate(311,299)"/>
<path d="M0 0 C0 41.58 0 83.16 0 126 C-6.93 126.99 -6.93 126.99 -14 128 C-18.4768159 129.5130411 -18.4768159 129.5130411 -22.890625 131.1953125 C-25 132 -25 132 -27 132 C-27.29242081 131.40263031 -27.58484161 130.80526062 -27.88612366 130.18978882 C-31.60967374 122.58392374 -35.33542542 114.97913848 -39.0625 107.375 C-39.50888258 106.46419804 -39.50888258 106.46419804 -39.96428299 105.53499603 C-47.06936718 91.03859783 -54.18410837 76.54794632 -61.4375 62.125 C-67.06806145 50.92673573 -72.52886543 39.65600743 -77.88061523 28.32202148 C-78.98046334 26.04052631 -80.13363474 23.79264837 -81.296875 21.54296875 C-83 18 -83 18 -83.0625 15.1875 C-81.12764833 11.20398186 -77.08362509 9.95481064 -73.1015625 8.5 C-71.61243707 7.99095287 -70.12005564 7.49135747 -68.625 7 C-67.44103638 6.60808472 -67.44103638 6.60808472 -66.2331543 6.20825195 C-44.10148962 -0.91128888 -23.9270715 0 0 0 Z " fill="#D04BD1" transform="translate(409,276)"/>
<path d="M0 0 C2.65007108 1.49189187 4.9519885 3.34020783 7.3125 5.25 C8.72655607 6.35194161 10.1419716 7.45214046 11.55859375 8.55078125 C12.28804199 9.12135254 13.01749023 9.69192383 13.76904297 10.27978516 C17.40844372 13.08600289 21.14003984 15.76054805 24.875 18.4375 C26.39455333 19.53121932 27.91408446 20.62496949 29.43359375 21.71875 C30.95571442 22.81252052 32.47784977 23.90627062 34 25 C43.99887122 32.19274342 53.96131434 39.43012461 63.86791992 46.74951172 C74.50544731 54.60062808 85.23692461 62.32215172 96 70 C94.87568087 72.41698551 93.75057025 74.8335972 92.625 77.25 C92.14933594 78.27287109 92.14933594 78.27287109 91.6640625 79.31640625 C91.2 80.31220703 91.2 80.31220703 90.7265625 81.328125 C90.44377441 81.9355957 90.16098633 82.54306641 89.86962891 83.16894531 C88.93987072 85.12660573 87.97154833 87.06279779 87 89 C72.97023003 88.93949844 58.94064565 88.86182462 44.91108227 88.76428509 C38.39703284 88.71950048 31.88304714 88.68026221 25.36889648 88.65356445 C19.08589555 88.62761223 12.80313877 88.58726728 6.52028847 88.53681374 C4.11967308 88.52009023 1.71901541 88.50861025 -0.68165016 88.50238609 C-4.03648281 88.49280465 -7.390683 88.46481653 -10.74536133 88.43237305 C-11.74445526 88.43380814 -12.74354919 88.43524323 -13.7729187 88.4367218 C-15.14219765 88.41791458 -15.14219765 88.41791458 -16.53913879 88.39872742 C-17.72963443 88.39181397 -17.72963443 88.39181397 -18.94418049 88.38476086 C-21.54580181 87.89784941 -22.43324273 87.10712314 -24 85 C-24.40405273 81.77978516 -24.40405273 81.77978516 -24.43359375 77.7890625 C-24.44055771 77.07309402 -24.44752167 76.35712555 -24.45469666 75.61946106 C-24.46867942 73.28751669 -24.45601967 70.95690079 -24.4375 68.625 C-24.43445862 67.83167267 -24.43141724 67.03834534 -24.42828369 66.22097778 C-24.3000766 43.70182961 -20.43624053 19.84767831 -9 0 C-5.75749834 -1.62125083 -3.47861912 -0.8084864 0 0 Z " fill="#A756E6" transform="translate(244,375)"/>
<path d="M0 0 C10.55182948 6.94450223 16.73217702 15.58942835 19.8359375 27.90625 C21.91928755 41.78816409 19.42759588 54.09692226 11.21875 65.45703125 C5.34374505 73.04934534 -4.05723054 78.33098173 -13.4765625 80.20703125 C-28.17576913 81.80152146 -40.61649059 79.86447652 -52.40625 70.59375 C-59.87391793 63.87530533 -65.16786237 54.71482892 -65.92163086 44.56713867 C-66.55863695 30.81193736 -65.34134849 19.09983969 -55.78125 8.45703125 C-54.99427734 7.53277344 -54.99427734 7.53277344 -54.19140625 6.58984375 C-40.60892474 -8.30294774 -16.99938274 -9.43083734 0 0 Z " fill="#072060" transform="translate(420.78125,685.54296875)"/>
<path d="M0 0 C10.05877909 6.65588363 16.61455505 15.46022063 19.18359375 27.421875 C20.33087694 41.03102737 19.99140877 54.6725172 10.86328125 65.6171875 C2.5868497 74.50953954 -7.12134166 79.93622155 -19.453125 80.625 C-32.735151 80.88325254 -43.9865287 78.71176099 -54.08203125 69.3125 C-64.35973553 58.27348429 -66.43896736 46.71323793 -66.12890625 32.06640625 C-65.61018333 21.32235782 -60.44533297 11.45756489 -52.56640625 4.171875 C-37.58288955 -7.76189936 -16.66257399 -9.33658792 0 0 Z " fill="#07205F" transform="translate(824.81640625,685.578125)"/>
<path d="M0 0 C8.18184315 6.94896268 14.21056305 16.04891023 15.20288086 26.97143555 C15.30016154 29.48734144 15.32518734 31.99009073 15.30859375 34.5078125 C15.3029541 35.39637939 15.29731445 36.28494629 15.29150391 37.20043945 C15.05547072 49.92636748 11.08160396 59.03514501 1.87109375 67.9453125 C-9.00116538 77.16189765 -22.23850395 78.67658114 -36.00390625 77.6953125 C-47.67217322 75.29866142 -57.02550846 69.32695528 -64.00390625 59.6953125 C-70.92222901 48.58275656 -71.78715687 34.82433984 -69.31640625 22.17578125 C-65.49541833 9.77349129 -58.36560059 1.53894967 -47.00390625 -4.6171875 C-31.9277612 -11.50491651 -13.40144585 -9.78674394 0 0 Z " fill="#07205F" transform="translate(293.00390625,688.3046875)"/>
<path d="M0 0 C0.99 0.99 0.99 0.99 2 2 C1.70897286 3.34320218 1.36217745 4.67421103 1 6 C0.84079138 9.26908373 0.70486488 12.5321429 0.65820312 15.8046875 C-0.15520702 35.70486135 -24.4351661 52.68809871 -37.68426514 65.82159424 C-40.32322757 68.43977663 -42.95625069 71.06391866 -45.58984375 73.6875 C-50.72090924 78.797374 -55.85830478 83.90081964 -61 89 C-62.32 88.34 -63.64 87.68 -65 87 C-65 86.34 -65 85.68 -65 85 C-65.59554687 84.89945313 -66.19109375 84.79890625 -66.8046875 84.6953125 C-76.40582196 81.65438379 -84.74045068 63.65301945 -89.19482422 55.15356445 C-96.83229687 40.02701078 -105.41783495 22.2975864 -104 5 C-102 3 -102 3 -100.16093254 2.75390434 C-99.03542331 2.75666972 -99.03542331 2.75666972 -97.88717651 2.75949097 C-97.02618347 2.75674164 -96.16519043 2.75399231 -95.27810669 2.75115967 C-94.33152191 2.75835022 -93.38493713 2.76554077 -92.40966797 2.77294922 C-91.41451172 2.77265717 -90.41935547 2.77236511 -89.39404297 2.77206421 C-86.09333684 2.7734614 -82.79285437 2.78904096 -79.4921875 2.8046875 C-77.208182 2.80841624 -74.9241749 2.81126387 -72.64016724 2.81326294 C-66.6198487 2.8209103 -60.59962621 2.84056826 -54.5793457 2.8626709 C-48.4396291 2.8831056 -42.29989703 2.89225957 -36.16015625 2.90234375 C-24.10672857 2.92381311 -12.05337226 2.95796233 0 3 C0 2.01 0 1.02 0 0 Z " fill="#4067F2" transform="translate(328,474)"/>
<path d="M0 0 C10.65764885 8.6549632 15.70391772 17.81567088 19 31 C11.08 31 3.16 31 -5 31 C-6.32 28.36 -7.64 25.72 -9 23 C-14.51505397 16.45649774 -22.1355979 13.55720954 -30.5078125 12.76171875 C-39.53054008 12.50585036 -48.23618617 14.73883468 -55.44140625 20.40625 C-62.75817048 27.88805403 -66.02056408 38.15885824 -66.375 48.4375 C-66.03670848 58.74803711 -63.32562259 69.35528019 -56.109375 77.00390625 C-48.05371594 84.36776253 -40.5612809 86.33558457 -29.8125 86.21875 C-21.32717811 85.55878052 -14.37741347 81.8460952 -8.75 75.5 C-6.64207005 73.00674952 -5.50960868 71.01921736 -4 68 C3.59 68 11.18 68 19 68 C17.37563402 80.99492782 11.79403953 89.2283725 1.9453125 97.78515625 C-11.37456374 107.61170646 -29.31496343 109.62475792 -45.32421875 107.57421875 C-59.80258472 104.4233861 -72.61575096 95.9088831 -80.875 83.625 C-90.31888961 67.69260271 -92.45907523 49.43328641 -88.09765625 31.48046875 C-83.46884811 16.80335824 -74.65271642 4.44177192 -61 -3 C-41.70380868 -11.20887697 -18.02300185 -12.24864204 0 0 Z " fill="#08205F" transform="translate(197,658)"/>
<path d="M0 0 C17.51467768 3.50293554 17.51467768 3.50293554 25.9375 6.6875 C27.33935547 7.20969116 27.33935547 7.20969116 28.76953125 7.74243164 C43.11970844 13.20606503 62.17004751 20.76424652 72 33 C71.68332697 37.08203965 70.07508151 39.90334569 67.9296875 43.33203125 C67.28805664 44.36577881 66.64642578 45.39952637 65.98535156 46.46459961 C65.28893555 47.56940674 64.59251953 48.67421387 63.875 49.8125 C63.15005086 50.97427588 62.42577674 52.13647322 61.70214844 53.29907227 C60.20968964 55.69395519 58.71278966 58.08596902 57.21191406 60.47558594 C55.14098337 63.77296605 53.08090761 67.07701296 51.0234375 70.3828125 C44.91425226 80.19123095 38.7637704 89.97324277 32.58398438 99.73730469 C26.01122675 110.13008856 19.50943719 120.56748842 13 131 C11.5 129.625 11.5 129.625 10 128 C10 127.34 10 126.68 10 126 C8.906875 125.855625 7.81375 125.71125 6.6875 125.5625 C3 125 3 125 0 124 C0 83.08 0 42.16 0 0 Z " fill="#8D63EE" transform="translate(425,278)"/>
<path d="M0 0 C6.07728705 4.94402246 8.74109213 10.75735831 10.625 18.25 C10.84416635 20.74289132 10.97750137 23.24434411 11.0390625 25.74609375 C11.05847397 26.4490155 11.07788544 27.15193726 11.09788513 27.87615967 C11.15781533 30.146486 11.20433752 32.41684572 11.25 34.6875 C11.28787367 36.25367321 11.32620696 37.81983538 11.36499023 39.38598633 C11.66213172 52.00899677 11.7054234 64.62352644 11.625 77.25 C4.365 77.25 -2.895 77.25 -10.375 77.25 C-10.87 73.785 -10.87 73.785 -11.375 70.25 C-11.84808594 70.64832031 -12.32117188 71.04664063 -12.80859375 71.45703125 C-22.01238806 78.83083137 -30.62995409 80.40353129 -42.375 79.25 C-50.08920277 77.59695655 -56.18643555 74.22702277 -61.375 68.25 C-65.09658684 62.31872097 -65.16437071 56.05491995 -64.375 49.25 C-62.57330935 42.56448124 -58.03287988 38.00348489 -52.375 34.25 C-44.14462124 30.65619208 -35.74771283 29.36687424 -26.875 28.5 C-25.72257813 28.37496094 -24.57015625 28.24992188 -23.3828125 28.12109375 C-19.0155873 27.6579032 -14.77016904 27.25 -10.375 27.25 C-10.77342559 25.64120578 -11.19453157 24.03801827 -11.625 22.4375 C-11.97304688 21.09751953 -11.97304688 21.09751953 -12.328125 19.73046875 C-13.55587356 16.82143765 -14.68953836 15.85017169 -17.375 14.25 C-22.78746764 12.44584412 -28.91066778 12.41697979 -34.3125 14.375 C-37.93019706 16.58991656 -38.65627641 18.46367759 -40.375 22.25 C-43.29172884 22.27700675 -46.20820677 22.29684237 -49.125 22.3125 C-49.95 22.32087891 -50.775 22.32925781 -51.625 22.33789062 C-52.82382812 22.34272461 -52.82382812 22.34272461 -54.046875 22.34765625 C-55.14660645 22.35551147 -55.14660645 22.35551147 -56.26855469 22.36352539 C-58.4211849 22.2475109 -60.3064135 21.84073271 -62.375 21.25 C-61.80065247 13.78348212 -58.15828998 7.61191167 -52.8125 2.5 C-38.09556303 -9.55387219 -15.60682945 -10.59758734 0 0 Z " fill="#071F5F" transform="translate(656.375,686.75)"/>
<path d="M0 0 C27.72 0 55.44 0 84 0 C84 7.26 84 14.52 84 22 C73.77 22 63.54 22 53 22 C53 52.36 53 82.72 53 114 C45.74 114 38.48 114 31 114 C31 83.64 31 53.28 31 22 C20.77 22 10.54 22 0 22 C0 14.74 0 7.48 0 0 Z " fill="#092260" transform="translate(515,650)"/>
<path d="M0 0 C7.59 0 15.18 0 23 0 C23 37.95 23 75.9 23 115 C15.41 115 7.82 115 0 115 C0 77.05 0 39.1 0 0 Z " fill="#072060" transform="translate(319,649)"/>
<path d="M0 0 C7.26 0 14.52 0 22 0 C22 37.95 22 75.9 22 115 C14.74 115 7.48 115 0 115 C0 77.05 0 39.1 0 0 Z " fill="#061E5D" transform="translate(723,649)"/>
<path d="M0 0 C0 6.93 0 13.86 0 21 C-2.31 21.0825 -4.62 21.165 -7 21.25 C-12.96777864 21.58971321 -18.23209327 22.13146586 -23 26 C-28.96760035 33.06689516 -29.29364643 40.48439479 -29.1953125 49.30859375 C-29.19106766 50.75867577 -29.19106766 50.75867577 -29.18673706 52.23805237 C-29.17560407 55.30466452 -29.15051224 58.37097715 -29.125 61.4375 C-29.11496131 63.52538639 -29.10583701 65.61327738 -29.09765625 67.70117188 C-29.07739477 72.80098755 -29.03823286 77.90016122 -29 83 C-36.59 83 -44.18 83 -52 83 C-52 55.94 -52 28.88 -52 1 C-44.74 1 -37.48 1 -30 1 C-29.505 7.93 -29.505 7.93 -29 15 C-27.7625 13.205625 -27.7625 13.205625 -26.5 11.375 C-18.96974845 1.30485363 -12.12833051 -0.13041216 0 0 Z " fill="#061E5D" transform="translate(505,681)"/>
<path d="M0 0 C0 6.93 0 13.86 0 21 C-3.465 21.0928125 -3.465 21.0928125 -7 21.1875 C-13.33931524 21.52653365 -18.40328023 22.35589136 -23 27 C-26.34710529 31.48905885 -28.09824457 35.97989565 -28.20532227 41.56323242 C-28.22526749 42.48396042 -28.24521271 43.40468842 -28.26576233 44.35331726 C-28.29083107 45.83938225 -28.29083107 45.83938225 -28.31640625 47.35546875 C-28.33718735 48.37224197 -28.35796844 49.3890152 -28.37937927 50.43659973 C-28.44480048 53.68683063 -28.50372537 56.93714277 -28.5625 60.1875 C-28.60569227 62.38998238 -28.64930679 64.59245653 -28.69335938 66.79492188 C-28.80126943 72.19653249 -28.90039843 77.59820417 -29 83 C-36.26 83 -43.52 83 -51 83 C-51 55.94 -51 28.88 -51 1 C-43.74 1 -36.48 1 -29 1 C-28.67 4.96 -28.34 8.92 -28 13 C-26.845 11.5975 -25.69 10.195 -24.5 8.75 C-16.90280911 0.31605556 -11.2193534 -0.50997061 0 0 Z " fill="#061E5D" transform="translate(908,681)"/>
<path d="M0 0 C6.76884683 3.69587342 10.48571447 8.40479383 12.8125 15.875 C13.69417891 23.94296593 12.90247619 30.59875709 8.11328125 37.2265625 C3.32459361 43.00309337 -1.23402005 47.25128217 -8.85546875 48.2109375 C-15.52057605 48.44996204 -21.5758952 47.81623732 -26.87109375 43.50390625 C-32.15766665 38.00639777 -35.28014035 30.3044 -35.625 22.6875 C-34.7506027 15.06775213 -32.11403835 8.92854203 -26.1875 3.875 C-17.56098568 -1.32509508 -9.56807552 -4.45558144 0 0 Z " fill="#FCFDFE" transform="translate(461.1875,504.125)"/>
<path d="M0 0 C7.26 0 14.52 0 22 0 C22 27.06 22 54.12 22 82 C14.74 82 7.48 82 0 82 C0 54.94 0 27.88 0 0 Z " fill="#051D5D" transform="translate(684,682)"/>
<path d="M0 0 C5.53812552 3.25403985 8.4785326 7.29975032 10.82421875 13.28125 C12.55827948 22.09605873 12.3628451 30.25902522 7.57421875 38.09375 C3.38495316 42.80667379 -0.20283777 45.60954031 -6.50390625 46.33203125 C-13.24639909 46.56244018 -18.11856705 45.05630995 -23.1875 40.515625 C-28.80193026 34.47977261 -29.9297749 28.00549291 -29.73046875 19.93359375 C-28.85495452 11.77335217 -25.62310288 6.50615248 -19.328125 1.37109375 C-13.99791712 -2.20791647 -5.89056907 -2.20066349 0 0 Z " fill="#FCFCFD" transform="translate(810.42578125,700.90625)"/>
<path d="M0 0 C3.02404132 3.51295817 4.53769061 7.45868114 6.125 11.75 C6.38925781 12.42804688 6.65351562 13.10609375 6.92578125 13.8046875 C8.70420213 18.55316153 9.53578373 22.95023282 10 28 C7.85917754 25.85917754 7.40737135 24.69232024 6.4921875 21.8671875 C6.22792969 21.06152344 5.96367188 20.25585938 5.69140625 19.42578125 C5.42199219 18.58402344 5.15257812 17.74226563 4.875 16.875 C4.59785156 16.02550781 4.32070313 15.17601562 4.03515625 14.30078125 C3.3513532 12.20221327 2.67321723 10.10198304 2 8 C1.63390625 8.825 1.2678125 9.65 0.890625 10.5 C-5.84919266 24.87827767 -15.43399872 36.72517258 -26.328125 48.18359375 C-28.46532044 50.43639771 -30.5352951 52.71190765 -32.5625 55.0625 C-36.80021266 59.95849812 -41.20767088 64.69961822 -45.59033203 69.46533203 C-53.0059744 77.53098456 -53.0059744 77.53098456 -60.25 85.75 C-63.74518348 89.769461 -67.36945391 93.66570118 -71 97.5625 C-71.87253418 98.50077637 -71.87253418 98.50077637 -72.76269531 99.45800781 C-75.62288163 102.51755506 -78.5155367 105.52617997 -81.5 108.46484375 C-83.90318551 110.84667354 -86.16232963 113.29699213 -88.3671875 115.86328125 C-92.39720018 120.53121051 -96.74271671 124.85245525 -101.125 129.1875 C-101.91003906 129.96802734 -102.69507813 130.74855469 -103.50390625 131.55273438 C-105.0098607 133.04980039 -106.51711476 134.5455606 -108.02587891 136.03979492 C-109.6406643 137.64319734 -111.24450459 139.25616338 -112.84375 140.875 C-114.6296973 142.63506401 -116.42699263 144.23984039 -118.375 145.8125 C-122.35688163 149.16428168 -125.67071872 153.01295798 -129 157 C-129 153.19778116 -128.06031098 152.6504449 -125.5 149.9375 C-122.6048826 146.78886969 -119.83484832 143.60988513 -117.1875 140.25 C-114.03610412 136.26277221 -110.79548079 132.36774991 -107.5 128.5 C-104.2735315 124.71113973 -101.09072484 120.90140677 -98 117 C-94.4508128 112.51987846 -90.76959081 108.16477207 -87.06420898 103.81420898 C-84.33914175 100.60661212 -81.67161486 97.36593233 -79.0625 94.0625 C-75.3281163 89.34860583 -71.42152741 84.79767877 -67.49462891 80.24462891 C-63.67794462 75.81207877 -59.95841927 71.30918984 -56.26953125 66.76953125 C-51.45311061 60.89200589 -46.505057 55.12388086 -41.58398438 49.33398438 C-40.18019188 47.68166431 -38.7772478 46.02863116 -37.375 44.375 C-36.91480469 43.83230469 -36.45460938 43.28960937 -35.98046875 42.73046875 C-33.15698002 39.39215586 -30.37843911 36.02157818 -27.625 32.625 C-23.46632067 27.51235838 -19.15503341 22.54404646 -14.82373047 17.578125 C-10.65443977 12.78646013 -6.60228957 7.91670133 -2.609375 2.9765625 C-1 1 -1 1 0 0 Z " fill="#1471F2" transform="translate(531,350)"/>
<path d="M0 0 C5.81278034 3.13384679 9.13219367 7.73184658 11.2578125 13.91015625 C12.95468566 21.37393891 12.74148172 29.58653015 8.796875 36.28125 C5.98378284 40.27356766 3.28558462 43.50453194 -1.078125 45.78125 C-7.75639836 46.84977374 -13.29324063 47.07578524 -19.34375 43.6875 C-23.73128325 40.36919754 -27.31830481 35.78252335 -28.203125 30.28125 C-29.37742955 12.49342377 -29.37742955 12.49342377 -24.203125 6.28125 C-17.53370456 -0.58522149 -9.47912217 -3.09247957 0 0 Z " fill="#FCFDFD" transform="translate(274.203125,700.71875)"/>
<path d="M0 0 C5.53862247 4.15396685 9.04071097 9.04641853 10.5 15.875 C11.5173625 24.60642978 10.68291504 31.62701725 5.5 38.875 C2.12145969 42.53226989 -1.13607423 44.69762029 -6.20703125 45.078125 C-13.80771849 45.19285235 -18.28477488 44.64158906 -24.1875 39.5625 C-29.16549752 33.77725964 -30.92698657 27.75576305 -30.76953125 20.18359375 C-29.95386049 13.19719638 -27.68006805 7.44739662 -22.375 2.75 C-15.83443661 -2.4084066 -7.88869036 -2.53565047 0 0 Z " fill="#FCFCFD" transform="translate(407.5,701.125)"/>
<path d="M0 0 C3.14933291 1.67121049 5.26672972 4.00008598 7.375 6.875 C8.75017467 11.55059389 8.55896687 14.92347121 6.3125 19.25 C2.76412865 23.46968485 0.58944665 24.82339482 -4.9375 25.4375 C-9.19734994 25.26839443 -11.74663122 23.78860181 -15 21 C-17.56764245 16.79680448 -17.68230714 12.80111245 -17 8 C-13.22127209 0.57749875 -8.02696646 -1.37724381 0 0 Z " fill="#081F5D" transform="translate(700,647)"/>
<path d="M0 0 C0.52359634 5.864279 -0.06163666 9.36490244 -3.44140625 14.23828125 C-8.0322902 19.42747589 -13.76877097 20.76500153 -20.4375 21.25 C-24.36270559 20.97454698 -26.67337396 20.05933993 -30 18 C-31.61318837 14.77362326 -31.57577198 11.48931696 -31 8 C-26.57681538 2.35662652 -18.00763393 1.56074531 -11.3125 0.3125 C-7.50771485 -0.046442 -3.82030751 -0.06702294 0 0 Z " fill="#F9FAFB" transform="translate(646,728)"/>
<path d="M0 0 C3.85025879 0.60355408 6.86101159 1.76772603 10.3125 3.5625 C11.19550781 4.01753906 12.07851563 4.47257812 12.98828125 4.94140625 C13.98408203 5.46541016 13.98408203 5.46541016 15 6 C10.84291111 13.56432315 3.85056731 19.45954807 -4 23 C-6.4375 22.75 -6.4375 22.75 -8 22 C-7.48053489 16.37368074 -5.93544322 12.10290424 -3.4375 7.0625 C-3.10814453 6.37865234 -2.77878906 5.69480469 -2.43945312 4.99023438 C-1.63482961 3.32268129 -0.8186103 1.66073161 0 0 Z " fill="#FBFAFE" transform="translate(556,275)"/>
<path d="M0 0 C0.90794412 7.9899083 -2.62490885 15.43736327 -7 22 C-11.74018901 20.16508812 -16.36413251 18.08058541 -21 16 C-20.49348004 11.80172883 -18.19038334 9.82133751 -15.25 6.9375 C-14.38890625 6.08027344 -13.5278125 5.22304687 -12.640625 4.33984375 C-5.71564382 -1.7963452 -5.71564382 -1.7963452 0 0 Z " fill="#FCFBFE" transform="translate(587,248)"/>
<path d="M0 0 C5.84028108 10.94228735 11.56443424 21.94450693 17.1875 33 C17.77619873 34.13937012 18.36489746 35.27874023 18.97143555 36.45263672 C19.5106665 37.5201416 20.04989746 38.58764648 20.60546875 39.6875 C21.09168701 40.64011719 21.57790527 41.59273438 22.07885742 42.57421875 C23 45 23 45 22 48 C21.57332031 47.14664063 21.14664063 46.29328125 20.70703125 45.4140625 C20.41256104 44.8252832 20.11809082 44.23650391 19.81469727 43.62988281 C19.13367757 42.26751162 18.45319543 40.9048716 17.77319336 39.54199219 C15.39802942 34.78449632 13.00824522 30.03465359 10.609375 25.2890625 C9.42708031 22.94270986 8.24478864 20.59635569 7.0625 18.25 C6.48282471 17.10740723 5.90314941 15.96481445 5.3059082 14.78759766 C4.49126099 13.16797119 4.49126099 13.16797119 3.66015625 11.515625 C3.17168213 10.54915039 2.68320801 9.58267578 2.17993164 8.58691406 C1.16747997 6.36718763 0.48020571 4.38170792 0 2 C-1.32 2 -2.64 2 -4 2 C-4.33 2.66 -4.66 3.32 -5 4 C-6.7325 4.5878125 -6.7325 4.5878125 -8.5 5.1875 C-14.37394741 7.25131936 -19.25796264 11.16906867 -23.56640625 15.6171875 C-25 17 -25 17 -28.125 18.625 C-36.09202942 23.05299109 -41.81400285 30.750834 -47.17578125 37.93359375 C-49.03088154 40.03498144 -50.50157728 40.83479201 -53 42 C-53.165 42.66 -53.33 43.32 -53.5 44 C-54 46 -54 46 -56.0625 47.25 C-56.701875 47.4975 -57.34125 47.745 -58 48 C-56.57053238 43.58382351 -54.3596864 40.91541066 -51.1875 37.5625 C-47.15118812 33.26824496 -47.15118812 33.26824496 -43.375 28.75 C-40.22134516 25.09839966 -36.69336895 22.09256407 -33 19 C-32.1853125 18.29746094 -31.370625 17.59492188 -30.53125 16.87109375 C-10.31418172 -0.22422134 -10.31418172 -0.22422134 0 0 Z " fill="#ED2BB6" transform="translate(311,299)"/>
<path d="M0 0 C16.875 3.375 16.875 3.375 22.9375 5.6875 C24.68353516 6.34298828 24.68353516 6.34298828 26.46484375 7.01171875 C27.30144531 7.33785156 28.13804687 7.66398437 29 8 C25.30782967 9.23072344 23.60432686 8.60450995 19.875 7.625 C18.79992187 7.34914063 17.72484375 7.07328125 16.6171875 6.7890625 C14 6 14 6 13 5 C10.972246 4.74250743 8.94371791 4.48792777 6.91015625 4.28125 C5 4 5 4 3 3 C2.42640924 33.31176368 1.89835725 63.62383145 1.4375 93.9375 C1.4263982 94.66767712 1.4152964 95.39785423 1.40385818 96.15015793 C1.26790266 105.10008529 1.13327453 114.05003229 1 123 C0.67 123 0.34 123 0 123 C0 82.41 0 41.82 0 0 Z " fill="#9543E6" transform="translate(425,278)"/>
<path d="M0 0 C0 0.33 0 0.66 0 1 C-0.59167969 1.06058594 -1.18335938 1.12117188 -1.79296875 1.18359375 C-5.91005195 1.62015233 -9.96068626 2.06785068 -14 3 C-15.794375 3.41185547 -15.794375 3.41185547 -17.625 3.83203125 C-39.96930656 9.45041932 -57.22241764 23.11245416 -70 42 C-71.0263036 43.98663054 -72.03021016 45.98517801 -73 48 C-74.26571203 50.05731119 -75.62645775 52.01073191 -77 54 C-78 51 -78 51 -76.5234375 47.890625 C-75.81897649 46.6702632 -75.10211213 45.45700297 -74.375 44.25 C-74.0039917 43.62037354 -73.6329834 42.99074707 -73.25073242 42.34204102 C-69.40369239 35.87784165 -65.38767951 30.30833225 -60 25 C-59.24203125 24.22140625 -58.4840625 23.4428125 -57.703125 22.640625 C-45.31901157 10.57203038 -17.80111609 -5.99159517 0 0 Z " fill="#6582F8" transform="translate(413,402)"/>
<path d="M0 0 C0.99 0.33 1.98 0.66 3 1 C2.34 2.65 1.68 4.3 1 6 C2.65 5.01 4.3 4.02 6 3 C4.58247111 7.35439815 2.45771868 9.95546772 -0.6875 13.25 C-4.4611654 17.28895895 -7.93558357 21.39384671 -11.26953125 25.796875 C-13.79889167 29.0170991 -16.54217625 32.03051935 -19.30078125 35.0546875 C-21.15653284 37.09439043 -21.15653284 37.09439043 -23 40 C-23.66 39.67 -24.32 39.34 -25 39 C-23.43780433 36.58313616 -21.87527978 34.16648613 -20.3125 31.75 C-19.82861816 31.00161865 -19.34473633 30.2532373 -18.84619141 29.48217773 C-16.04113579 25.14632247 -13.22974818 20.81469964 -10.41015625 16.48828125 C-9.52686646 15.13234863 -9.52686646 15.13234863 -8.62573242 13.74902344 C-7.46923107 11.97435591 -6.31185796 10.20025615 -5.15356445 8.42675781 C-4.62593506 7.6169043 -4.09830566 6.80705078 -3.5546875 5.97265625 C-3.08530762 5.25343994 -2.61592773 4.53422363 -2.13232422 3.79321289 C-0.95909633 2.00103596 -0.95909633 2.00103596 0 0 Z " fill="#8483F5" transform="translate(383,516)"/>
<path d="M0 0 C0.33 0 0.66 0 1 0 C1 41.25 1 82.5 1 125 C-2.3 125 -5.6 125 -9 125 C-8.505 124.01 -8.505 124.01 -8 123 C-5.69 123 -3.38 123 -1 123 C-0.67 82.41 -0.34 41.82 0 0 Z " fill="#C512CB" transform="translate(408,277)"/>
<path d="M0 0 C0.495 1.485 0.495 1.485 1 3 C-1.45734238 3.48476109 -3.91569908 3.96285934 -6.375 4.4375 C-7.39400391 4.63956055 -7.39400391 4.63956055 -8.43359375 4.84570312 C-18.0239884 6.68311518 -27.49571949 7.19347368 -37.25 7.1875 C-38.88956665 7.1884668 -38.88956665 7.1884668 -40.56225586 7.18945312 C-48.53690073 7.13742786 -56.16429371 6.56994473 -64 5 C-64 4.67 -64 4.34 -64 4 C-62.62652901 3.80160975 -61.25108154 3.61689017 -59.875 3.4375 C-58.72644531 3.28087891 -58.72644531 3.28087891 -57.5546875 3.12109375 C-55 3 -55 3 -52.20996094 3.48632812 C-49.09884808 3.9841819 -46.23237755 4.11429189 -43.0859375 4.09765625 C-41.99539063 4.09443359 -40.90484375 4.09121094 -39.78125 4.08789062 C-38.09515625 4.07532227 -38.09515625 4.07532227 -36.375 4.0625 C-34.67730469 4.05573242 -34.67730469 4.05573242 -32.9453125 4.04882812 C-30.84813379 4.04013129 -28.75096184 4.029376 -26.65380859 4.01586914 C-24.43590574 4.00260661 -22.21794251 4 -20 4 C-13.19662655 3.16402993 -6.52533684 2.12452827 0 0 Z " fill="#0F8CFD" transform="translate(425,607)"/>
<path d="M0 0 C0.33 0.99 0.66 1.98 1 3 C-0.32 4.32 -1.64 5.64 -3 7 C-1.125 1.125 -1.125 1.125 0 0 Z M-4 7 C-4 14.06225891 -12.00728601 20.17086067 -16.71484375 24.91015625 C-18.78013314 26.97008243 -20.85796764 29.01696894 -22.9375 31.0625 C-24.01414123 32.12908371 -25.09031647 33.19613804 -26.16601562 34.26367188 C-28.77200459 36.8478847 -31.38420433 39.42570969 -34 42 C-34.66 41.67 -35.32 41.34 -36 41 C-35.31486328 40.32533691 -34.62972656 39.65067383 -33.92382812 38.95556641 C-31.33908696 36.40752275 -28.76137899 33.85245703 -26.18554688 31.29541016 C-25.0780249 30.19783406 -23.96870151 29.10207215 -22.85742188 28.00830078 C-16.08504035 21.33982764 -9.72572404 14.61794357 -4 7 Z M-37 42 C-37 45 -37 45 -38.46875 46.80932617 C-39.1390625 47.46392822 -39.809375 48.11853027 -40.5 48.79296875 C-41.221875 49.50517578 -41.94375 50.21738281 -42.6875 50.95117188 C-43.450625 51.68916016 -44.21375 52.42714844 -45 53.1875 C-45.763125 53.93708984 -46.52625 54.68667969 -47.3125 55.45898438 C-49.20180839 57.31286823 -51.09775206 59.15941069 -53 61 C-53 58 -53 58 -51.53125 56.19067383 C-50.8609375 55.53607178 -50.190625 54.88146973 -49.5 54.20703125 C-48.778125 53.49482422 -48.05625 52.78261719 -47.3125 52.04882812 C-46.549375 51.31083984 -45.78625 50.57285156 -45 49.8125 C-43.8553125 48.68811523 -43.8553125 48.68811523 -42.6875 47.54101562 C-40.79819161 45.68713177 -38.90224794 43.84058931 -37 42 Z " fill="#3698FD" transform="translate(327,497)"/>
<path d="M0 0 C0.99 0.99 0.99 0.99 2 2 C1.625 4.125 1.625 4.125 1 6 C0.505 5.01 0.505 5.01 0 4 C-33.66 4 -67.32 4 -102 4 C-102 3.67 -102 3.34 -102 3 C-68.34 3 -34.68 3 0 3 C0 2.01 0 1.02 0 0 Z " fill="#577BF3" transform="translate(328,474)"/>
<path d="M0 0 C1.32 0.66 2.64 1.32 4 2 C0.66666667 5.33333333 -2.66666667 8.66666667 -6 12 C-6.86496094 12.8765625 -7.72992188 13.753125 -8.62109375 14.65625 C-10.48633298 16.49392411 -12.34244315 18.17158215 -14.375 19.8125 C-18.35688163 23.16428168 -21.67071872 27.01295798 -25 31 C-25 27.19778116 -24.06031098 26.6504449 -21.5 23.9375 C-18.47438782 20.6494896 -15.58923955 17.31383634 -12.8125 13.8125 C-12.15378906 12.98234375 -11.49507813 12.1521875 -10.81640625 11.296875 C-10.21699219 10.53890625 -9.61757813 9.7809375 -9 9 C-6.27467255 5.559003 -3.68971725 2.4598115 0 0 Z " fill="#087CF6" transform="translate(427,476)"/>
<path d="M0 0 C0.33 0 0.66 0 1 0 C1.07558619 4.14018485 1.12925873 8.27997759 1.16479492 12.4206543 C1.17964771 13.82176732 1.19993556 15.22283595 1.22631836 16.6237793 C1.46407427 29.59779328 0.77116704 42.55906259 -6 54 C-7 52 -7 52 -6.2578125 49.27734375 C-5.50868654 47.06871377 -4.75870073 44.86037522 -4.0078125 42.65234375 C-1.2416083 32.62753396 -1.67562786 22.01194525 -1.39453125 11.68945312 C-1.35714844 10.47322266 -1.31976563 9.25699219 -1.28125 8.00390625 C-1.23581055 6.34597046 -1.23581055 6.34597046 -1.18945312 4.65454102 C-1 2 -1 2 0 0 Z " fill="#1F8DFD" transform="translate(503,513)"/>
<path d="M0 0 C2.31 0.66 4.62 1.32 7 2 C7 2.66 7 3.32 7 4 C8.32 4.33 9.64 4.66 11 5 C11 5.66 11 6.32 11 7 C11.66 7 12.32 7 13 7 C13 7.66 13 8.32 13 9 C13.57878906 9.27972656 14.15757812 9.55945313 14.75390625 9.84765625 C16.89740409 10.94736384 18.90522921 12.14570015 20.9375 13.4375 C23.26919994 14.919328 25.59003598 16.33189524 28 17.6875 C28.99 18.3371875 28.99 18.3371875 30 19 C30 19.66 30 20.32 30 21 C32.65228812 22.07525194 35.28368454 23.09456151 38 24 C39.6875 26.0625 39.6875 26.0625 41 28 C42.98 27.67 44.96 27.34 47 27 C46.34 28.32 45.68 29.64 45 31 C40.11793472 30.53198246 37.00936488 28.09393746 33.25 25.1875 C31.9217422 24.18594742 30.59226628 23.1860087 29.26171875 22.1875 C28.56868652 21.66542969 27.8756543 21.14335937 27.16162109 20.60546875 C22.83498957 17.39201394 18.40435715 14.32432039 13.98730469 11.23706055 C10.46202398 8.7648357 6.96123186 6.263056 3.49609375 3.70703125 C2.82634521 3.21307861 2.15659668 2.71912598 1.46655273 2.21020508 C0.98259033 1.8108374 0.49862793 1.41146973 0 1 C0 0.67 0 0.34 0 0 Z " fill="#A73ADD" transform="translate(305,401)"/>
<path d="M0 0 C2.84911716 1.65115209 5.37343743 3.62784318 7.9375 5.6875 C8.93426758 6.46383789 8.93426758 6.46383789 9.95117188 7.25585938 C11.28881182 8.29768757 12.62267895 9.34437879 13.95263672 10.39599609 C17.25954743 12.98679068 20.62912848 15.49331063 24 18 C18.3968308 18 13.78246505 13.77059442 9.6875 10.1875 C7.18975718 7.6843643 7.18975718 7.6843643 4 8 C4 7.01 4 6.02 4 5 C3.360625 4.690625 2.72125 4.38125 2.0625 4.0625 C0 3 0 3 -1 2 C-3.32515499 1.24657483 -3.32515499 1.24657483 -6 2 C-10.51156391 6.97220407 -12.72502899 13.79784441 -15 20 C-16.37048699 15.88853904 -14.83322396 13.31280999 -13.25 9.5 C-12.98445312 8.82324219 -12.71890625 8.14648438 -12.4453125 7.44921875 C-9.50143105 0.20384062 -8.0533675 -2.20538371 0 0 Z " fill="#BF35D8" transform="translate(244,375)"/>
<path d="M0 0 C0 0.66 0 1.32 0 2 C-3.45933448 3.24181238 -6.83609376 4.18431935 -10.4375 4.875 C-14.91570426 5.81300224 -18.11598006 7.62202861 -22 10 C-22.66 10 -23.32 10 -24 10 C-23.45730469 11.08539063 -22.91460937 12.17078125 -22.35546875 13.2890625 C-18.04296875 21.9140625 -18.04296875 21.9140625 -17.00146484 24.01660156 C-16.09651562 25.80885107 -15.1390786 27.57436161 -14.17578125 29.3359375 C-13 32 -13 32 -14 35 C-15.87708781 31.44912715 -17.72248775 27.88270647 -19.5625 24.3125 C-20.09552734 23.30509766 -20.62855469 22.29769531 -21.17773438 21.25976562 C-21.67724609 20.28330078 -22.17675781 19.30683594 -22.69140625 18.30078125 C-23.15748291 17.40528564 -23.62355957 16.50979004 -24.10375977 15.5871582 C-25.15248391 12.55982784 -25.02955768 11.00942653 -24 8 C-20.40730686 5.21962534 -16.24985212 3.83750081 -12 2.3125 C-10.80375 1.87550781 -9.6075 1.43851562 -8.375 0.98828125 C-5.34546506 0.10116049 -3.12042785 -0.21866635 0 0 Z " fill="#EB27B5" transform="translate(351,281)"/>
<path d="M0 0 C3.02404132 3.51295817 4.53769061 7.45868114 6.125 11.75 C6.38925781 12.42804688 6.65351562 13.10609375 6.92578125 13.8046875 C8.70420213 18.55316153 9.53578373 22.95023282 10 28 C7.85917754 25.85917754 7.40737135 24.69232024 6.4921875 21.8671875 C6.22792969 21.06152344 5.96367188 20.25585938 5.69140625 19.42578125 C5.42199219 18.58402344 5.15257812 17.74226563 4.875 16.875 C4.59785156 16.02550781 4.32070313 15.17601562 4.03515625 14.30078125 C3.3513724 12.2022722 2.67498131 10.1013569 2 8 C0.68 10.97 -0.64 13.94 -2 17 C-3.52864816 12.41405552 -1.62563394 9.48674967 0 5 C-2.64 7.31 -5.28 9.62 -8 12 C-8 8.03869629 -6.65122875 7.17085599 -4 4.3125 C-3.2575 3.50425781 -2.515 2.69601562 -1.75 1.86328125 C-1.1725 1.24839844 -0.595 0.63351562 0 0 Z " fill="#1D5FF1" transform="translate(531,350)"/>
<path d="M0 0 C2.96616849 3.60899318 4.95712323 7.57432511 7.046875 11.72265625 C7.42233459 12.46454697 7.79779419 13.20643768 8.18463135 13.97080994 C8.97340293 15.53388975 9.7599604 17.09808859 10.54443359 18.66333008 C11.75008167 21.06266252 12.97045835 23.45412785 14.19140625 25.84570312 C14.95664635 27.3667264 15.72100035 28.88819588 16.484375 30.41015625 C16.85197937 31.12583267 17.21958374 31.84150909 17.59832764 32.57887268 C20.11430985 37.65707045 20.11430985 37.65707045 19 41 C16 36.25 16 36.25 16 34 C15.34 34 14.68 34 14 34 C13.87141602 33.42588379 13.74283203 32.85176758 13.61035156 32.26025391 C11.42958894 24.18445376 6.83654269 16.61159484 3.00390625 9.22265625 C2.42189453 8.07990234 2.42189453 8.07990234 1.828125 6.9140625 C1.3007373 5.8923999 1.3007373 5.8923999 0.76269531 4.85009766 C0 3 0 3 0 0 Z " fill="#B832D4" transform="translate(341,361)"/>
<path d="M0 0 C0.33 0 0.66 0 1 0 C1 16.5 1 33 1 50 C-2.3 50 -5.6 50 -9 50 C-8.67 49.34 -8.34 48.68 -8 48 C-5.69 48 -3.38 48 -1 48 C-0.67 32.16 -0.34 16.32 0 0 Z " fill="#A820D9" transform="translate(408,352)"/>
<path d="M0 0 C0.74476089 0.00141495 1.48952179 0.0028299 2.2568512 0.00428772 C4.61007898 0.00983636 6.96320775 0.02237892 9.31640625 0.03515625 C10.92252466 0.0401779 12.52864457 0.04473964 14.13476562 0.04882812 C18.04951668 0.0597889 21.96419474 0.07701741 25.87890625 0.09765625 C25.87890625 0.42765625 25.87890625 0.75765625 25.87890625 1.09765625 C24.83959961 1.15300537 23.80029297 1.20835449 22.72949219 1.26538086 C18.86778237 1.47207037 15.00636716 1.68387639 11.14501953 1.8972168 C9.47484795 1.98877967 7.80460004 2.07896113 6.13427734 2.16772461 C3.73123029 2.29566792 1.32850298 2.42860234 -1.07421875 2.5625 C-1.81915588 2.60108627 -2.56409302 2.63967255 -3.331604 2.6794281 C-6.71977232 2.87275586 -9.84453103 3.23537768 -13.12109375 4.09765625 C-15.87109375 3.66015625 -15.87109375 3.66015625 -18.12109375 3.09765625 C-12.68861629 -0.52399539 -6.3519387 -0.04633284 0 0 Z " fill="#E721B8" transform="translate(380.12109375,275.90234375)"/>
<path d="M0 0 C0.86625 0.4640625 0.86625 0.4640625 1.75 0.9375 C3.84294184 1.92583364 5.74535275 2.5168613 8 3 C7.67 4.32 7.34 5.64 7 7 C7.66 7 8.32 7 9 7 C12.63069919 13.13052487 12.79932503 21.79695379 11.1875 28.625 C10 32 10 32 8 35 C7.34 34.67 6.68 34.34 6 34 C6.495 32.906875 6.99 31.81375 7.5 30.6875 C9.74718911 24.56174891 10.23747563 18.45707477 8.015625 12.25 C5.84529004 7.74856454 3.35679443 3.72977159 0 0 Z " fill="#067CFC" transform="translate(464,505)"/>
<path d="M0 0 C0.66 0 1.32 0 2 0 C2.67354499 1.43429001 3.33859701 2.87257057 4 4.3125 C4.556875 5.51326172 4.556875 5.51326172 5.125 6.73828125 C6 9 6 9 6 12 C6.66 12 7.32 12 8 12 C8.268125 12.763125 8.53625 13.52625 8.8125 14.3125 C9.95800967 16.90496926 10.99711522 18.08815544 13 20 C13 20.66 13 21.32 13 22 C14.32 22.33 15.64 22.66 17 23 C15.02 23.66 13.04 24.32 11 25 C9.16038326 21.21135025 7.32937928 17.41860225 5.5 13.625 C4.97535156 12.54476563 4.45070313 11.46453125 3.91015625 10.3515625 C3.16572266 8.8046875 3.16572266 8.8046875 2.40625 7.2265625 C1.71499023 5.79691162 1.71499023 5.79691162 1.00976562 4.33837891 C0 2 0 2 0 0 Z " fill="#B040DC" transform="translate(371,383)"/>
<path d="M0 0 C0.33 0.99 0.66 1.98 1 3 C-9.81924515 5.41706541 -19.91985206 6.39782446 -31 6 C-31 5.67 -31 5.34 -31 5 C-27.26513121 4.4254048 -23.78706732 4 -20 4 C-13.19662655 3.16402993 -6.52533684 2.12452827 0 0 Z " fill="#0585FD" transform="translate(425,607)"/>
<path d="M0 0 C0.33 0.99 0.66 1.98 1 3 C-0.32 4.32 -1.64 5.64 -3 7 C-1.125 1.125 -1.125 1.125 0 0 Z M-4 7 C-4 13.60661303 -10.97867722 19.0746579 -15.42651367 23.56054688 C-17.60227854 25.72330426 -19.79513569 27.86690343 -22 30 C-22 27 -22 27 -20.09375 24.87109375 C-19.2378125 24.06800781 -18.381875 23.26492188 -17.5 22.4375 C-12.51767607 17.6184146 -8.19576472 12.50840619 -4 7 Z " fill="#4495FB" transform="translate(327,497)"/>
<path d="M0 0 C0.66 0.33 1.32 0.66 2 1 C2.66 3.64 3.32 6.28 4 9 C-3.92 9 -11.84 9 -20 9 C-19.67 8.01 -19.34 7.02 -19 6 C-19 6.66 -19 7.32 -19 8 C-11.08 7.505 -11.08 7.505 -3 7 C-2.67 5.68 -2.34 4.36 -2 3 C-1.34 2.67 -0.68 2.34 0 2 C0 1.34 0 0.68 0 0 Z " fill="#051043" transform="translate(212,680)"/>
<path d="M0 0 C0.66 0 1.32 0 2 0 C0.60421372 3.97262248 -1.27658117 6.96198392 -3.8125 10.3125 C-7.12012299 14.75881287 -10.1366149 19.25751843 -13 24 C-13.33 23.34 -13.66 22.68 -14 22 C-13.0625 19.375 -13.0625 19.375 -12 17 C-11.34 17 -10.68 17 -10 17 C-9.67 15.35 -9.34 13.7 -9 12 C-8.34 12 -7.68 12 -7 12 C-6.566875 10.5459375 -6.566875 10.5459375 -6.125 9.0625 C-5 6 -5 6 -3 5 C-2.67 4.01 -2.34 3.02 -2 2 C-1.34 2 -0.68 2 0 2 C0 1.34 0 0.68 0 0 Z " fill="#087FFC" transform="translate(522,478)"/>
<path d="M0 0 C0.99 0.33 1.98 0.66 3 1 C2.29875 1.54527344 1.5975 2.09054687 0.875 2.65234375 C-5.40609253 7.64478822 -10.89345789 12.81069537 -16 19 C-16.33 18.01 -16.66 17.02 -17 16 C-5.82758621 2.9137931 -5.82758621 2.9137931 0 0 Z " fill="#658DFA" transform="translate(366,416)"/>
<path d="M0 0 C3.97243168 1.32414389 6.13488574 2.9879568 9 6 C6 12 3 18 0 24 C0 23.34 0 22.68 0 22 C-0.66 21.67 -1.32 21.34 -2 21 C-1.01 19.515 -1.01 19.515 0 18 C0.6837045 16.67532254 1.34964186 15.34136367 2 14 C2.37125 13.38125 2.7425 12.7625 3.125 12.125 C4.32710201 9.20560941 4.39105596 7.12844765 4 4 C2.12498069 1.62280307 2.12498069 1.62280307 0 0 Z " fill="#8758EC" transform="translate(331,440)"/>
<path d="M0 0 C0.33 0.66 0.66 1.32 1 2 C0.19555664 3.69580078 0.19555664 3.69580078 -1.08984375 5.6953125 C-1.54423828 6.41074219 -1.99863281 7.12617188 -2.46679688 7.86328125 C-2.95212891 8.60964844 -3.43746094 9.35601562 -3.9375 10.125 C-4.41896484 10.87910156 -4.90042969 11.63320313 -5.39648438 12.41015625 C-6.59057797 14.27814425 -7.79194768 16.14102066 -9 18 C-10.5 16.625 -10.5 16.625 -12 15 C-12 14.34 -12 13.68 -12 13 C-12.66 12.67 -13.32 12.34 -14 12 C-12.02 12 -10.04 12 -8 12 C-7.67 11.01 -7.34 10.02 -7 9 C-6.34 9 -5.68 9 -5 9 C-5 8.01 -5 7.02 -5 6 C-4.34 6 -3.68 6 -3 6 C-2.690625 5.195625 -2.38125 4.39125 -2.0625 3.5625 C-1 1 -1 1 0 0 Z " fill="#5F57F1" transform="translate(447,391)"/>
<path d="M0 0 C0.66 0.33 1.32 0.66 2 1 C0.625 2.5 0.625 2.5 -1 4 C-1.66 4 -2.32 4 -3 4 C-3 4.66 -3 5.32 -3 6 C-3.99 6.495 -3.99 6.495 -5 7 C-5.042721 8.66611905 -5.04063832 10.33382885 -5 12 C-3.89674453 13.3337793 -3.89674453 13.3337793 -1.125 13.0625 C-0.09375 13.041875 0.9375 13.02125 2 13 C2.99 13 3.98 13 5 13 C3.375 14.5625 3.375 14.5625 1 16 C-2.67293796 15.77962372 -4.36966546 15.63033454 -7 13 C-7.5625 9.75 -7.5625 9.75 -7 6 C-4.92369557 3.62338221 -2.58363027 1.79931394 0 0 Z " fill="#7A56ED" transform="translate(521,265)"/>
<path d="M0 0 C0 2.66053211 -0.19335496 4.49940039 -1 7 C-1.66 7.66 -2.32 8.32 -3 9 C-2.34 10.32 -1.68 11.64 -1 13 C-5.13937592 9.69984002 -8.58662205 6.82675589 -11 2 C-10.34 2 -9.68 2 -9 2 C-8.01 3.485 -8.01 3.485 -7 5 C-4.11562221 3.70700306 -2.12780579 2.34058637 0 0 Z " fill="#2F85FA" transform="translate(272,557)"/>
<path d="M0 0 C0.66 0.33 1.32 0.66 2 1 C-9.28870293 8.01852959 -9.28870293 8.01852959 -15 10 C-15.99 9.67 -16.98 9.34 -18 9 C-14.21458257 6.64210396 -10.34840551 4.64600122 -6.3125 2.75 C-5.17425781 2.20859375 -4.03601563 1.6671875 -2.86328125 1.109375 C-1.44595703 0.56023438 -1.44595703 0.56023438 0 0 Z " fill="#0B85FD" transform="translate(470,591)"/>
<path d="M0 0 C0.33 0.99 0.66 1.98 1 3 C-1.07553648 3.5534764 -2.84365964 4 -5 4 C-5.33 4.66 -5.66 5.32 -6 6 C-9.63 5.34 -13.26 4.68 -17 4 C-17 3.67 -17 3.34 -17 3 C-16.19175781 2.95101562 -15.38351562 2.90203125 -14.55078125 2.8515625 C-13.48214844 2.77679687 -12.41351563 2.70203125 -11.3125 2.625 C-9.72888672 2.52058594 -9.72888672 2.52058594 -8.11328125 2.4140625 C-5.09322731 2.01239911 -2.75921946 1.25930981 0 0 Z " fill="#047FFD" transform="translate(460,549)"/>
<path d="M0 0 C0.99 0 1.98 0 3 0 C1.95518663 6.70880162 0.30199356 12.0564116 -3 18 C-4.55544861 14.88910278 -3.13029553 12.78745823 -2.0625 9.5625 C-0.47400855 4.87187252 -0.47400855 4.87187252 0 0 Z " fill="#0783FC" transform="translate(500,549)"/>
<path d="M0 0 C4.35535069 1.16142685 6.64619703 2.07699505 9 6 C10.98 5.67 12.96 5.34 15 5 C14.34 6.32 13.68 7.64 13 9 C7.71223057 8.66951441 3.75899378 5.51647805 0 2 C0 1.34 0 0.68 0 0 Z " fill="#9E4AE2" transform="translate(337,423)"/>
<path d="M0 0 C2.55263088 2.274694 3.84144815 4.43202693 5.1875 7.5625 C5.53167969 8.34753906 5.87585938 9.13257813 6.23046875 9.94140625 C7 12 7 12 7 14 C6.01 14.33 5.02 14.66 4 15 C3.896875 14.319375 3.79375 13.63875 3.6875 12.9375 C3.04910275 9.82115475 3.04910275 9.82115475 1.4375 6.375 C0 3 0 3 0 0 Z " fill="#AC49DF" transform="translate(361,402)"/>
<path d="M0 0 C0.33 0.66 0.66 1.32 1 2 C-0.36328125 4.56640625 -0.36328125 4.56640625 -2.3125 7.5625 C-3.26576172 9.04943359 -3.26576172 9.04943359 -4.23828125 10.56640625 C-6 13 -6 13 -8 14 C-8.3125 11.8125 -8.3125 11.8125 -8 9 C-5.5 6.3125 -5.5 6.3125 -3 4 C-3 3.34 -3 2.68 -3 2 C-2.01 1.34 -1.02 0.68 0 0 Z " fill="#0B7EFC" transform="translate(532,464)"/>
<path d="M0 0 C2.31 0.66 4.62 1.32 7 2 C7 2.66 7 3.32 7 4 C8.32 4.33 9.64 4.66 11 5 C11 5.66 11 6.32 11 7 C11.66 7.33 12.32 7.66 13 8 C7.63951758 7.66496985 3.90710652 4.4126588 0 1 C0 0.67 0 0.34 0 0 Z " fill="#B73DDA" transform="translate(305,401)"/>
<path d="M0 0 C0.66 0 1.32 0 2 0 C2 0.66 2 1.32 2 2 C2.515625 1.773125 3.03125 1.54625 3.5625 1.3125 C7.28807032 0.83486278 9.64516304 2.38709761 13 4 C13 4.33 13 4.66 13 5 C2.44191344 4.22095672 2.44191344 4.22095672 -2 2 C-1.34 1.34 -0.68 0.68 0 0 Z " fill="#0F87FD" transform="translate(336,604)"/>
<path d="M0 0 C0.99 0 1.98 0 3 0 C3.309375 1.0209375 3.309375 1.0209375 3.625 2.0625 C5.45408866 5.97009851 8.10279034 8.83857939 11 12 C10.67 12.66 10.34 13.32 10 14 C8.69979989 12.61211198 7.4101807 11.21430742 6.125 9.8125 C5.40570313 9.03519531 4.68640625 8.25789062 3.9453125 7.45703125 C2.0182908 5.02310224 0.98699889 2.92463354 0 0 Z " fill="#2052F0" transform="translate(250,545)"/>
<path d="M0 0 C0 3.80345877 -1.13786331 4.77701015 -3.5 7.6875 C-4.1496875 8.49574219 -4.799375 9.30398438 -5.46875 10.13671875 C-5.9740625 10.75160156 -6.479375 11.36648438 -7 12 C-7.66 11.67 -8.32 11.34 -9 11 C-8.06981474 9.53699018 -7.13055973 8.07974421 -6.1875 6.625 C-5.66542969 5.81289063 -5.14335937 5.00078125 -4.60546875 4.1640625 C-3 2 -3 2 0 0 Z " fill="#897EF4" transform="translate(367,544)"/>
<path d="M0 0 C0.66 0.99 1.32 1.98 2 3 C1.1875 4.9375 1.1875 4.9375 0 7 C-0.99 7.33 -1.98 7.66 -3 8 C-3.33 8.66 -3.66 9.32 -4 10 C-4.66 9.67 -5.32 9.34 -6 9 C-4.02 6.03 -2.04 3.06 0 0 Z " fill="#7C7DF7" transform="translate(377,526)"/>
<path d="M0 0 C0.66 0 1.32 0 2 0 C0.48446596 3.47775179 -1.5773456 5.9557984 -4.125 8.75 C-5.21167969 9.94882812 -5.21167969 9.94882812 -6.3203125 11.171875 C-6.87460937 11.77515625 -7.42890625 12.3784375 -8 13 C-8.33 12.34 -8.66 11.68 -9 11 C-7.5489926 9.16086305 -6.08898341 7.3288247 -4.625 5.5 C-3.81289063 4.4790625 -3.00078125 3.458125 -2.1640625 2.40625 C-1.44992187 1.6121875 -0.73578125 0.818125 0 0 Z " fill="#9485F6" transform="translate(399,505)"/>
<path d="M0 0 C1.16161779 2.86578759 0.9946154 4.01630163 0.00390625 7.015625 C-0.70958984 8.61664063 -0.70958984 8.61664063 -1.4375 10.25 C-1.91058594 11.32765625 -2.38367188 12.4053125 -2.87109375 13.515625 C-3.24363281 14.33546875 -3.61617187 15.1553125 -4 16 C-5.24901513 12.25295461 -4.52427258 11.06113346 -3.125 7.4375 C-2.75632812 6.46683594 -2.38765625 5.49617188 -2.0078125 4.49609375 C-1 2 -1 2 0 0 Z " fill="#0D77FB" transform="translate(539,446)"/>
<path d="M0 0 C0 0.66 0 1.32 0 2 C-1.95421035 2.86355778 -3.91351347 3.71559934 -5.875 4.5625 C-6.96554687 5.03816406 -8.05609375 5.51382812 -9.1796875 6.00390625 C-10.11039062 6.33261719 -11.04109375 6.66132813 -12 7 C-12.66 6.67 -13.32 6.34 -14 6 C-12.2335343 4.9923048 -10.46166177 3.99408286 -8.6875 3 C-7.20830078 2.1646875 -7.20830078 2.1646875 -5.69921875 1.3125 C-3 0 -3 0 0 0 Z " fill="#5574F8" transform="translate(382,409)"/>
<path d="M0 0 C0 0.66 0 1.32 0 2 C-1.051875 2.12375 -2.10375 2.2475 -3.1875 2.375 C-6.45958771 2.91140782 -9.00536076 3.63880035 -12 5 C-12.33 4.34 -12.66 3.68 -13 3 C-8.37802694 0.78145293 -5.23175837 -0.38281159 0 0 Z " fill="#7E5EEF" transform="translate(594,226)"/>
<path d="M0 0 C1 2 1 2 0.3125 4.5 C-1.20978829 7.39959674 -2.04966382 7.78515569 -5 9 C-6.35113205 9.97581759 -7.68946944 10.97029741 -9 12 C-7.55575365 8.76138697 -5.74227753 6.38030837 -3.375 3.75 C-2.74335938 3.04359375 -2.11171875 2.3371875 -1.4609375 1.609375 C-0.97882813 1.07828125 -0.49671875 0.5471875 0 0 Z " fill="#128FFC" transform="translate(376,536)"/>
<path d="M0 0 C0.66 0.66 1.32 1.32 2 2 C1.21516341 3.48280196 0.42190666 4.9611498 -0.375 6.4375 C-0.81585938 7.26121094 -1.25671875 8.08492188 -1.7109375 8.93359375 C-3 11 -3 11 -5 12 C-4.42365861 7.24518354 -2.44931479 4.02951788 0 0 Z " fill="#618EF8" transform="translate(340,444)"/>
<path d="M0 0 C0.33 0.66 0.66 1.32 1 2 C-0.74468372 2.70088156 -2.49601161 3.38524009 -4.25 4.0625 C-5.22453125 4.44535156 -6.1990625 4.82820312 -7.203125 5.22265625 C-10.04007395 6.01113787 -11.29409552 6.02437812 -14 5 C-9.37559575 2.92373687 -4.8991349 1.29977048 0 0 Z " fill="#0483FE" transform="translate(449,601)"/>
<path d="M0 0 C0.66 0.33 1.32 0.66 2 1 C-3.14285714 7.57142857 -3.14285714 7.57142857 -7 9 C-5.44499019 5.18315774 -2.96404505 2.80804268 0 0 Z " fill="#057FFC" transform="translate(469,541)"/>
<path d="M0 0 C2 3 2 3 2 5 C-1.3 5 -4.6 5 -8 5 C-7.67 4.34 -7.34 3.68 -7 3 C-4.69 3 -2.38 3 0 3 C0 2.01 0 1.02 0 0 Z " fill="#AA52E0" transform="translate(407,397)"/>
<path d="M0 0 C-1.39332574 3.36720387 -2.9789286 4.9859524 -6 7 C-5.625 4.0625 -5.625 4.0625 -5 1 C-3 0 -3 0 0 0 Z " fill="#8C88F7" transform="translate(421,481)"/>
<path d="M0 0 C1 3 1 3 0.00390625 5.04296875 C-0.47175781 5.75066406 -0.94742188 6.45835937 -1.4375 7.1875 C-1.91058594 7.90292969 -2.38367188 8.61835938 -2.87109375 9.35546875 C-3.24363281 9.89816406 -3.61617187 10.44085938 -4 11 C-4.65234375 9.234375 -4.65234375 9.234375 -5 7 C-4.00390625 5.078125 -4.00390625 5.078125 -2.5625 3.25 C-2.08941406 2.63640625 -1.61632812 2.0228125 -1.12890625 1.390625 C-0.75636719 0.93171875 -0.38382813 0.4728125 0 0 Z " fill="#EB29B8" transform="translate(252,347)"/>
<path d="M0 0 C2.97 0.495 2.97 0.495 6 1 C6 1.99 6 2.98 6 4 C5.34 4.66 4.68 5.32 4 6 C3.71125 5.195625 3.4225 4.39125 3.125 3.5625 C2.26737432 0.8673532 2.26737432 0.8673532 0 0 Z " fill="#5A84F8" transform="translate(433,403)"/>
<path d="M0 0 C0.33 0.99 0.66 1.98 1 3 C-1.64 4.98 -4.28 6.96 -7 9 C-5.04783565 5.09567131 -3.12613393 2.96160056 0 0 Z " fill="#F222B1" transform="translate(266,330)"/>
<path d="M0 0 C0.928125 0.20625 1.85625 0.4125 2.8125 0.625 C0.24036866 2.24449011 -0.86419159 2.66908751 -3.9375 2.25 C-4.68 2.04375 -5.4225 1.8375 -6.1875 1.625 C-3.1875 -0.375 -3.1875 -0.375 0 0 Z " fill="#6284F8" transform="translate(424.1875,401.375)"/>
</svg>
